Coordinates
version=1
nRows=17
nColumns=24
inDegrees=yes

Units are S.I. units (second, meters, Newtons, ...)
Angles are in degrees.

endheader
time	pelvis_tilt	pelvis_list	pelvis_rotation	pelvis_tx	pelvis_ty	pelvis_tz	hip_flexion_r	hip_adduction_r	hip_rotation_r	knee_angle_r	ankle_angle_r	subtalar_angle_r	mtp_angle_r	hip_flexion_l	hip_adduction_l	hip_rotation_l	knee_angle_l	ankle_angle_l	subtalar_angle_l	mtp_angle_l	lumbar_extension	lumbar_bending	lumbar_rotation
      1.39566667	     -2.20274450	     -1.67924288	    -14.01730528	      0.95804916	      0.97812159	      0.35431437	    -18.47520256	      1.47184824	     10.39895997	     -7.16580005	     11.82839203	     -6.58877254	     10.53878166	     26.93546587	     -6.61658921	    -12.52864858	      3.28409507	      5.40411019	    -11.63564774	      8.33099953	     -0.43805026	      2.14246841	     11.88508395
      1.39983333	     -2.20079329	     -1.60662643	    -14.15126456	      0.96419701	      0.97759159	      0.35407225	    -18.58251510	      1.27243925	     10.32285517	     -7.60257997	     11.71306546	     -6.40970216	     10.89256999	     26.97868339	     -6.60601019	    -12.51318021	      2.74997613	      5.58799185	    -11.75177632	      8.24521175	     -0.41554880	      2.04779356	     12.15387515
      1.40400000	     -2.17223485	     -1.50768580	    -14.29944541	      0.97046112	      0.97713449	      0.35387037	    -18.73328560	      1.03557593	     10.33249320	     -8.00026102	     11.51128809	     -6.40587358	     10.96226794	     26.96028477	     -6.56092100	    -12.49674563	      2.23668552	      5.73900780	    -11.93886592	      8.23232273	     -0.37995569	      1.89969782	     12.17646607
      1.40816667	     -2.13435023	     -1.40048051	    -14.42955463	      0.97673888	      0.97669994	      0.35358801	    -18.85117692	      0.78544105	     10.20132008	     -8.46570080	     11.30198225	     -6.21268207	     15.53433454	     26.96760266	     -6.49900227	    -12.54984682	      1.62771770	      5.90265677	    -11.92763374	      7.65932491	     -0.37825928	      1.75062171	     12.24664944
      1.41233333	     -2.11892891	     -1.27738463	    -14.54952234	      0.98308705	      0.97626742	      0.35332068	    -18.95628483	      0.53820513	     10.16877355	     -8.91775921	     11.06524715	     -6.25189414	     15.55161001	     26.96911310	     -6.41040083	    -12.50456009	      1.05471987	      5.94941022	    -12.15012187	      7.66152803	     -0.30880900	      1.58304581	     12.37140093
      1.41650000	     -2.11804148	     -1.13739636	    -14.67234164	      0.98948736	      0.97584116	      0.35303758	    -19.02005600	      0.27344489	     10.10156801	     -9.40882002	     10.82608026	     -6.15328837	     15.61649126	     26.98395728	     -6.30464162	    -12.45531806	      0.46481964	      5.94794388	    -12.35564176	      7.67052934	     -0.23908647	      1.39617550	     12.58773349
      1.42066667	     -2.09495537	     -0.98609618	    -14.79841060	      0.99593271	      0.97547609	      0.35271682	    -19.07614125	     -0.01264146	      9.98165967	     -9.95519300	     10.61598802	     -5.99839577	     15.76031419	     26.97255382	     -6.17715367	    -12.47453274	     -0.13039577	      5.84566174	    -12.55791575	      7.69659165	     -0.17604747	      1.21528945	     12.77344656
      1.42483333	     -2.07483331	     -0.82200206	    -14.89705277	      1.00241266	      0.97512309	      0.35235664	    -19.11974311	     -0.30085809	      9.84518037	    -10.51345283	     10.35481429	     -5.86891075	     15.98544946	     26.97919378	     -6.02358850	    -12.46960171	     -0.75873768	      5.72663868	    -12.72619505	      7.74766021	     -0.10380746	      1.00717083	     12.89121747
      1.42900000	     -2.03738000	     -0.64037320	    -14.99571779	      1.00897704	      0.97484545	      0.35200928	    -19.18011445	     -0.60713443	      9.75289292	    -11.06479925	     10.00298161	     -5.88012094	     16.05670782	     26.94376602	     -5.84232527	    -12.50493927	     -1.34943957	      5.59010000	    -12.87280733	      7.76350811	     -0.02734085	      0.77254514	     12.93298002
      1.43316667	     -2.02715812	     -0.43596455	    -15.08814080	      1.01553606	      0.97453480	      0.35158991	    -19.15040962	     -0.93450109	      9.55048621	    -11.72414771	      9.75923105	     -5.62851228	     16.39271238	     26.95175895	     -5.63528681	    -12.52019898	     -1.95146106	      5.29368488	    -13.09362348	      7.84920341	      0.06416802	      0.53096417	     13.11627617
      1.43733333	     -1.96713235	     -0.22552647	    -15.15952137	      1.02217199	      0.97433655	      0.35116148	    -19.19318843	     -1.27223493	      9.38320981	    -12.32677324	      9.28424908	     -5.65417286	     21.04013062	     26.88593456	     -5.39222416	    -12.49393118	     -2.50513800	      4.97076247	    -13.37942220	      9.08181783	      0.11535952	      0.25864336	     13.14844171
      1.44150000	     -1.94661324	      0.00620810	    -15.21153721	      1.02885258	      0.97410916	      0.35071956	    -19.17182038	     -1.60805922	      9.21679194	    -12.97799773	      8.86993341	     -5.63255781	     21.06299030	     26.89663617	     -5.14031650	    -12.56857116	     -3.12772334	      4.66567537	    -13.43109611	      9.08997364	      0.23373125	     -0.03526068	     13.20519685
      1.44566667	     -1.92452365	      0.24876239	    -15.26395198	      1.03553094	      0.97392288	      0.35024331	    -19.11057088	     -1.95703324	      9.01657618	    -13.69613817	      8.44462351	     -5.53950044	     21.11782946	     26.90202074	     -4.87213497	    -12.64704802	     -3.73391828	      4.30411281	    -13.52319683	      9.10816089	      0.34854575	     -0.33409833	     13.27541206
      1.44983333	     -1.89595578	      0.50794423	    -15.28131338	      1.04226347	      0.97376822	      0.34970984	    -19.03781547	     -2.31483992	      8.76806811	    -14.44736269	      7.99419945	     -5.42137067	     21.20810493	     26.90350104	     -4.56670134	    -12.69542050	     -4.33283049	      3.89741408	    -13.62974326	      9.13665345	      0.46543053	     -0.65349959	     13.33150280
      1.45400000	     -1.86841031	      0.77392196	    -15.31315783	      1.04894057	      0.97363688	      0.34913435	    -18.89400404	     -2.68902053	      8.46711144	    -15.32133366	      7.61876840	     -5.15699577	     21.48085727	     26.90750574	     -4.25355798	    -12.72291716	     -4.92322887	      3.44195199	    -13.85050035	      9.22046119	      0.57276442	     -0.95542103	     13.41439729
      1.45816667	     -1.82088634	      1.04026931	    -15.29234589	      1.05568943	      0.97358403	      0.34855284	    -18.81607174	     -3.03957416	      8.24101119	    -16.10524304	      7.01482292	     -5.17113511	     21.59459423	     26.90902865	     -3.92260793	    -12.76711347	     -5.54733444	      3.03124163	    -13.89614839	      9.25382285	      0.67169848	     -1.29994551	     13.41904387
      1.46233333	     -1.79530839	      1.32564335	    -15.26982742	      1.06244101	      0.97352001	      0.34789476	    -18.64155133	     -3.41745063	      7.90562486	    -17.01130330	      6.44367812	     -5.05815006	     26.57891724	     26.92807700	     -3.56711481	    -12.77151288	     -6.14874481	      2.54348555	    -14.10865076	     10.76436322	      0.79826388	     -1.62931240	     13.40417705
